<?xml version="1.0" encoding="UTF-8"?>
<svg xmlns="http://www.w3.org/2000/svg" viewBox="0 0 433 214.28">
  <defs>
    <style>
      .cls-1 {
        fill: #d50c2d;
      }

      .cls-2 {
        fill: #7eb528;
      }

      .cls-3 {
        fill: #fff;
      }

      .cls-4 {
        fill: #383838;
      }
    </style>
  </defs>
  <g id="Ebene_1" data-name="Ebene 1">
    <g>
      <rect class="cls-3" x="33.5" y="76.82" width="325.48" height="77.67"/>
      <path class="cls-2" d="M33,76.33v78.17h225.38c-.14-.17-.28-.34-.42-.5-.14-.17-.27-.34-.4-.5H34v-76.17h324.48v76.17h-90.86l-1.04,1h92.9v-78.17H33Z"/>
    </g>
    <g id="HETZNER">
      <path class="cls-1" d="M258.07,118.55c1.52-.34,3.13-.69,5.17-2.26.02-.01.03-.02.04-.04,1.41-1.2,1.98-3.48,1.92-5.47-.06-1.75-.44-3.31-1.3-4.63-1.46-2.27-3.5-3.48-6.06-3.62-.01,0-1.25-.03-1.25-.03-.8-.02-2.11-.04-2.91-.05l-13.18-.03c-.8,0-1.13.33-1.13,1.13v23.1c0,.8.33,1.13,1.13,1.13h3.4c.8,0,1.13-.33,1.13-1.13v-7.64s4.19,0,4.19,0c.8,0,1.91.47,2.47,1.05l6.65,6.68c.56.57,1.48,1.05,2.28,1.05h5.11c.8,0,.99-.46.43-1.03,0,0-7.9-8.01-8.1-8.2ZM257.21,113.64h-12.16s0-5.81,0-5.81h12.16c1.18,0,2.14,1.28,2.14,2.45v.9c0,1.17-.96,2.46-2.14,2.46Z"/>
      <path class="cls-1" d="M234,122.44h-18.84v-4.76h15.06c.8,0,1.13-.34,1.13-1.14v-2.78c.01-.8-.32-1.13-1.12-1.13h-15.08v-4.76h18.84c.8,0,1.13-.34,1.13-1.14v-3.12c0-.8-.33-1.13-1.13-1.13h-23.5c-.8,0-1.13.33-1.13,1.13v23.08c0,.8.33,1.13,1.13,1.13h23.5c.8,0,1.13-.33,1.13-1.13v-3.12c0-.8-.33-1.13-1.13-1.13Z"/>
      <path class="cls-1" d="M205.19,110.77c0-1.74-.44-3.29-1.3-4.61-1.46-2.27-3.54-3.56-6.11-3.7-3.58,0-16.45-.03-17.32-.03-.8,0-1.13.33-1.13,1.13v23.1c0,.8.33,1.13,1.13,1.13h3.73c.79,0,1.11-.31,1.13-1.1v-18.86s10.03.03,10.03.03c2.14,0,4.21,1.42,4.21,3.56v15.27c0,.8.33,1.13,1.13,1.13h3.37c.8,0,1.13-.33,1.13-1.13,0,0,0-15.71,0-15.92Z"/>
      <path class="cls-1" d="M174.05,122.29s-15.99.04-16.27.04l16.31-14.37c.6-.53,1.09-1.29,1.08-2.09v-2.27c0-.8-.34-1.13-1.14-1.13h-23.56c-.8,0-1.13.33-1.13,1.13v3.14c0,.8.33,1.13,1.13,1.13.03,0,15.14,0,15.14,0-.19.17-15.18,14.26-15.18,14.26-.6.53-1.09,1.29-1.09,2.09v2.48c0,.8.33,1.13,1.13,1.13l23.57-.04c.8,0,1.13-.33,1.13-1.13v-3.24c0-.8-.33-1.13-1.13-1.13Z"/>
      <path class="cls-1" d="M144.04,102.47h-23.57c-.8,0-1.13.33-1.13,1.13v3.12c0,.8.33,1.13,1.13,1.13h8.89v18.83c0,.8.33,1.13,1.13,1.13h3.77c.8,0,1.13-.33,1.13-1.13v-18.83h8.65c.8,0,1.13-.33,1.13-1.13v-3.12c0-.8-.33-1.13-1.13-1.13Z"/>
      <path class="cls-1" d="M114.04,122.44h-18.84v-4.76h15.06c.8,0,1.13-.34,1.13-1.14v-2.78c.01-.8-.32-1.13-1.12-1.13h-15.08v-4.76h18.84c.8,0,1.13-.34,1.13-1.14v-3.12c0-.8-.33-1.13-1.13-1.13h-23.5c-.8,0-1.13.33-1.13,1.13v23.08c0,.8.33,1.13,1.13,1.13h23.5c.8,0,1.13-.33,1.13-1.13v-3.12c0-.8-.33-1.13-1.13-1.13Z"/>
      <path class="cls-1" d="M84.03,102.46h-3.55c-.8,0-1.13.33-1.13,1.13v8.96s-14.16,0-14.16,0v-9c0-.8-.34-1.13-1.14-1.13h-3.59c-.8,0-1.13.33-1.13,1.13v23.14c0,.8.33,1.13,1.13,1.13h3.59c.8,0,1.13-.33,1.13-1.13v-9.09h14.16v9.09c0,.8.33,1.13,1.13,1.13h3.55c.8,0,1.13-.34,1.13-1.14v-23.1c0-.8-.33-1.13-1.13-1.13Z"/>
    </g>
  </g>
  <g id="green-electricity">
    <g>
      <path class="cls-4" d="M356.97,51.41c-9.74,19.01-23.55,38.68-40.88,57.19-17.02,18.17-35.36,33.02-53.36,43.94,12.81,16.84,33.06,27.71,55.85,27.71,38.74,0,70.14-31.4,70.14-70.14,0-24.56-12.63-46.17-31.74-58.7Z"/>
      <g>
        <circle class="cls-2" cx="318.26" cy="109.62" r="47.09"/>
        <path class="cls-3" d="M317.91,159.59c-27.45,0-49.84-22.38-49.84-49.84s22.38-49.91,49.84-49.91,49.91,22.38,49.91,49.91-22.45,49.84-49.91,49.84ZM317.91,65.48c-24.36,0-44.21,19.85-44.21,44.28s19.85,44.21,44.21,44.21,44.21-19.85,44.21-44.21-19.85-44.28-44.21-44.28Z"/>
        <path class="cls-3" d="M343.67,114.47c.56-.56.56-1.55,0-2.11s-1.55-.56-2.11,0l-3.94,3.94h0l-3.03-2.96h0l3.94-3.94c.56-.56.56-1.55,0-2.11s-1.55-.56-2.11,0l-3.94,3.94h0l-1.41-1.41-1.76,1.76h0l-6.48,6.48c-.99.99-.99,2.53,0,3.45l2.39,2.39-14.43,14.43c-1.06,1.06-2.82,1.06-3.87,0-.49-.49-.77-1.2-.77-1.97,0-.7.28-1.41.77-1.97l10.07-10.07c2.25-2.25,2.25-5.91,0-8.09-1.06-1.06-2.53-1.69-4.08-1.69s-2.96.56-4.08,1.69l-10,10.21c-.49.49-1.2.77-1.97.77s-1.41-.28-1.97-.77c-1.06-1.06-1.06-2.82,0-3.87l8.94-8.94c36.39,2.25,33.93-36.74,33.93-36.74-10.56,16.12-32.73,1.06-40.83,18.44-4.93,10.56.49,18.86.49,18.86,6.48-27.95,29.92-22.52,29.92-22.52-17.95,1.62-23.23,13.44-24.78,19.01l-9.78,9.71c-2.25,2.25-2.25,5.91,0,8.09,2.25,2.25,5.91,2.25,8.09,0l10.14-10c1.06-1.06,2.82-1.06,3.87,0,1.06,1.06,1.06,2.82,0,3.87l-10.07,10.07c-2.25,2.25-2.25,5.91,0,8.09,1.13,1.13,2.6,1.69,4.08,1.69s2.96-.56,4.08-1.69l14.43-14.43,1.97,1.97c.99.99,2.53.99,3.45,0l3.66-3.66,4.58-4.58-1.41-1.41h0l4.01-3.94Z"/>
      </g>
      <g>
        <path class="cls-3" d="M285.11,154.31l-5.91,7.37-1.03-.83,5.18-6.45-1.65-1.32.73-.92,2.68,2.15Z"/>
        <path class="cls-3" d="M283.35,164.11c-.29-.63-.38-1.34-.27-2.13.1-.79.42-1.61.95-2.46s1.12-1.5,1.79-1.94c.66-.45,1.34-.68,2.03-.7s1.35.16,1.98.55c.62.38,1.07.89,1.36,1.52.29.63.38,1.34.27,2.13-.1.79-.42,1.61-.95,2.46-.53.85-1.12,1.5-1.78,1.94-.66.45-1.34.68-2.03.7-.69.02-1.35-.16-1.97-.54-.63-.39-1.09-.9-1.37-1.53ZM287.37,164.77c.71-.29,1.37-.94,2-1.94s.9-1.89.85-2.65c-.06-.77-.4-1.34-1.04-1.74-.64-.4-1.32-.45-2.03-.16-.71.29-1.37.94-2,1.94s-.9,1.89-.85,2.65c.05.76.4,1.35,1.05,1.75.64.39,1.31.45,2.02.16Z"/>
        <path class="cls-3" d="M292.07,168.96c-.38-.58-.58-1.26-.6-2.06-.02-.8.16-1.66.55-2.58.39-.92.87-1.65,1.46-2.2.59-.54,1.22-.88,1.9-1.01.68-.13,1.36-.05,2.04.24.67.28,1.2.71,1.58,1.29.38.58.58,1.26.6,2.06.02.8-.16,1.66-.55,2.58s-.87,1.65-1.46,2.2c-.59.54-1.22.88-1.9,1.01-.68.13-1.35.05-2.03-.23-.68-.29-1.21-.72-1.59-1.29ZM296.15,168.98c.66-.4,1.21-1.14,1.67-2.23.46-1.09.6-2,.42-2.75s-.61-1.27-1.29-1.56c-.7-.29-1.37-.24-2.03.16-.66.4-1.21,1.14-1.67,2.23s-.6,2-.42,2.75.61,1.27,1.31,1.56c.69.29,1.36.24,2.02-.16Z"/>
        <path class="cls-3" d="M309.17,164.97l1,.22-8.3,7.82-1-.22,8.3-7.82ZM301.18,167.64c-.29-.55-.35-1.2-.18-1.95.17-.75.5-1.31.99-1.69.5-.38,1.06-.49,1.69-.35.63.14,1.09.49,1.38,1.03.28.55.34,1.2.17,1.95-.17.76-.5,1.32-.99,1.69-.49.37-1.05.49-1.69.35-.63-.14-1.1-.49-1.38-1.04ZM303.77,167.68c.29-.26.5-.67.63-1.22.12-.55.11-1.01-.05-1.37-.16-.36-.43-.59-.83-.68-.39-.09-.74,0-1.04.27-.3.26-.51.67-.63,1.21-.12.54-.1,1,.06,1.37.16.37.43.6.83.68.4.09.75,0,1.04-.26ZM305.99,173.29c-.28-.55-.34-1.2-.17-1.95.17-.76.5-1.32.99-1.69.49-.37,1.05-.49,1.69-.35.63.14,1.1.49,1.38,1.04.29.55.35,1.2.18,1.95-.17.75-.5,1.31-.99,1.69-.49.38-1.06.5-1.69.35-.63-.14-1.09-.49-1.38-1.03ZM308.57,173.31c.3-.26.51-.67.63-1.21s.1-1-.06-1.37c-.16-.37-.44-.6-.83-.68-.4-.09-.75,0-1.04.26s-.51.67-.63,1.22-.11,1.01.05,1.37c.16.36.43.59.83.68.39.09.74,0,1.04-.27Z"/>
        <path class="cls-3" d="M323.28,170.25l1.28-.04.12,3.68c-.45.4-.98.72-1.59.94-.61.23-1.25.35-1.91.37-.94.03-1.8-.15-2.57-.54-.77-.39-1.38-.95-1.84-1.67s-.7-1.54-.73-2.45c-.03-.92.16-1.75.57-2.5.41-.75.99-1.35,1.73-1.79.75-.44,1.6-.67,2.55-.71.75-.02,1.43.08,2.05.3.62.23,1.15.57,1.59,1.03l-.8.86c-.77-.7-1.69-1.04-2.75-1-.71.02-1.35.2-1.9.53-.56.33-.98.78-1.29,1.34-.3.56-.44,1.19-.42,1.88.02.68.2,1.3.54,1.84.34.54.8.96,1.37,1.26.58.3,1.21.43,1.92.41.84-.03,1.56-.25,2.17-.68l-.1-3.08Z"/>
        <path class="cls-3" d="M334.63,173.18l-2.57-2.42c-.24.07-.43.12-.57.15l-2.26.48.6,2.81-1.31.28-1.96-9.24,3.57-.75c1.18-.25,2.18-.16,2.98.27s1.31,1.14,1.52,2.15c.15.71.11,1.36-.14,1.93-.24.58-.66,1.05-1.26,1.41l2.83,2.64-1.43.3ZM332.99,168.85c.36-.45.47-1.01.33-1.68-.14-.67-.47-1.14-.98-1.4-.51-.26-1.18-.31-2.01-.13l-2.22.47.88,4.16,2.22-.47c.83-.17,1.42-.49,1.78-.94Z"/>
        <path class="cls-3" d="M344.98,168.3l.43,1.09-6.32,2.48-3.45-8.8,6.14-2.41.43,1.09-4.9,1.92,1.06,2.7,4.37-1.71.42,1.07-4.37,1.71,1.11,2.84,5.08-1.99Z"/>
        <path class="cls-3" d="M353.63,163.44l.59,1.01-5.85,3.44-4.79-8.14,5.69-3.34.6,1.01-4.54,2.67,1.47,2.5,4.04-2.38.58.99-4.04,2.38,1.55,2.63,4.7-2.76Z"/>
        <path class="cls-3" d="M357.04,150.1l6.11,7.21-.84.71-8.84-1.75,4.55,5.37-1.02.86-6.11-7.21.84-.71,8.84,1.75-4.56-5.37,1.02-.86Z"/>
        <path class="cls-3" d="M371.77,145.02l.95.69-4.01,5.47-7.62-5.59,3.9-5.32.95.69-3.11,4.25,2.34,1.72,2.77-3.78.93.68-2.77,3.78,2.46,1.8,3.22-4.4Z"/>
        <path class="cls-3" d="M366.02,138.49l.62-1.18,7.32,3.87,2.37-4.48,1.04.55-2.99,5.66-8.35-4.41Z"/>
        <path class="cls-3" d="M379.52,128.02l1.11.39-2.26,6.4-8.91-3.14,2.2-6.22,1.11.39-1.75,4.96,2.74.97,1.56-4.42,1.08.38-1.56,4.42,2.88,1.02,1.81-5.14Z"/>
        <path class="cls-3" d="M381.23,123.5c-.55.67-1.22,1.14-2.02,1.43-.8.29-1.65.35-2.55.19-.9-.16-1.68-.52-2.32-1.07-.65-.55-1.11-1.24-1.38-2.06-.28-.82-.33-1.69-.16-2.61.13-.72.37-1.35.72-1.91.35-.55.8-1,1.36-1.33l.68,1.01c-.86.56-1.38,1.36-1.57,2.39-.12.68-.08,1.33.13,1.94s.56,1.12,1.05,1.53c.49.41,1.07.68,1.74.8.67.12,1.31.08,1.91-.14.6-.21,1.11-.57,1.52-1.06s.68-1.09.8-1.77c.19-1.03-.03-1.96-.65-2.79l.99-.7c.4.51.67,1.08.81,1.73s.14,1.33.01,2.05c-.17.92-.52,1.71-1.07,2.38Z"/>
        <path class="cls-3" d="M374.79,112.56l-.1,3.21-1.17-.04.24-7.73,1.17.04-.1,3.21,8.27.25-.04,1.32-8.27-.25Z"/>
        <path class="cls-3" d="M382.32,99.53l-2.64,2.34c.05.25.08.44.1.58l.27,2.3,2.85-.34.16,1.33-9.38,1.11-.43-3.62c-.14-1.2.04-2.18.53-2.94.5-.76,1.26-1.2,2.28-1.32.72-.09,1.36.02,1.91.31.55.29.98.75,1.29,1.38l2.89-2.58.17,1.45ZM377.86,100.77c-.42-.4-.97-.56-1.65-.48-.68.08-1.17.36-1.48.85s-.41,1.15-.32,1.99l.27,2.26,4.22-.5-.27-2.26c-.1-.84-.36-1.46-.78-1.86Z"/>
        <path class="cls-3" d="M372.23,97.44l-.32-1.3,9.18-2.23.32,1.3-9.18,2.23Z"/>
        <path class="cls-3" d="M379.09,88.94c-.13.85-.46,1.61-.99,2.27-.54.66-1.23,1.15-2.09,1.47-.86.32-1.71.41-2.54.27s-1.58-.49-2.24-1.06c-.66-.56-1.15-1.28-1.48-2.16-.26-.68-.38-1.35-.36-2.01.02-.65.18-1.27.49-1.84l1.1.51c-.45.92-.49,1.87-.12,2.86.24.65.61,1.18,1.1,1.6s1.05.67,1.68.77c.63.1,1.26.03,1.9-.21.64-.24,1.16-.61,1.57-1.1s.66-1.05.76-1.69.02-1.28-.22-1.93c-.37-.98-1.03-1.66-1.99-2.07l.49-1.11c.61.23,1.13.59,1.58,1.07.45.48.8,1.07,1.06,1.75.33.88.43,1.74.3,2.59Z"/>
        <path class="cls-3" d="M367.68,84.88l-.62-1.19,8.38-4.36.62,1.19-8.38,4.36Z"/>
        <path class="cls-3" d="M365.74,79.15l1.77,2.67-.98.65-4.27-6.45.98-.65,1.77,2.67,6.9-4.57.73,1.1-6.9,4.57Z"/>
        <path class="cls-3" d="M363.78,68.41l2.44-2.17.88.99-2.46,2.19-2.13,6.86-.95-1.07,1.73-5.55-5.72,1.06-.88-.99,7.09-1.33Z"/>
      </g>
    </g>
  </g>
</svg>