<?xml version="1.0" encoding="UTF-8"?>
<svg id="Layer_1" data-name="Layer 1" xmlns="http://www.w3.org/2000/svg" width="530.97" height="279.48" viewBox="0 0 530.97 279.48">
  <defs>
    <style>
      .cls-1 {
        fill: none;
      }

      .cls-2 {
        fill: #6ec485;
        fill-rule: evenodd;
      }

      .cls-3 {
        fill: #279c4e;
      }

      .cls-4 {
        fill: #046434;
      }
    </style>
  </defs>
  <g>
    <path class="cls-3" d="M530.52,93.9c-.01-3.99-.37-6-.37-6,0,0,0-2.47-.94-6.22-2.81-11.22-10.94-35.93-31.03-54.56C468.64-.28,428.88.4,428.88.4c0,0-106.16-.71-155.06-.23-9.25.09-16.21.85-20.12,1.4-2.32.33-4.38,1.05-4.38,1.05,0,0-.92.07-3.8,1.16-8.47,3.19-26.85,11.12-40.3,24.04-17.36,16.68-25.55,42.12-25.55,42.12,0,0-2.51,9.95-3.15,23.1-1.06,21.83-.12,52.85-.12,52.85,0,0,8.4-6.05,14.35-8.63,6.77-2.94,11.2-2.45,11.2-2.45,0,0,4.01-.75,11.32-.82,24.71-.22,79.57,0,79.57,0,0,0,21.76.08,38.38,16.8,15.66,15.76,15.63,40.02,15.63,40.02l-.12,88.44,15.87-.35s1.59-.86,2.92-2.1c1.24-1.15,2.22-2.68,2.22-2.68l.12-60.32s.11-.61.47-.93c.34-.32.93-.35.93-.35l44.1.47s.81-.09,1.17.23c.34.32.23,1.05.23,1.05l.23,57.87s.11,2.8,1.4,4.55c1.34,1.81,3.73,2.68,3.73,2.68l43.28-.12s2.58-.39,4.32-2.22c1.58-1.67,2.33-4.78,2.33-4.78l.23-58.22s.06-1.61,2.57-1.52c2.89.11,2.45,1.63,2.45,1.63l.47,58.45s.77,2.57,2.22,4.32c1.41,1.69,3.5,2.57,3.5,2.57l43.05-.47s2.74-.73,4.32-2.22c1.63-1.54,2.1-3.85,2.1-3.85,0,0-.37-146.75-.45-179.04ZM260.64,71.57s-.18,1.24-.89,2.74c-.37.78-.84,1.57-1.45,2.16-.71.69-1.56,1.16-2.36,1.48-1.36.53-2.54.62-2.54.62,0,0-.92.02-1.75-.47-.86-.51-1.87-1.52-1.87-1.52,0,0-.84-.81-1.63-1.98-.78-1.16-1.17-2.1-1.17-2.1,0,0-.32-1.05-.35-1.52-.03-.47,0-1.28,0-1.28,0,0,0-1.18.58-2.45.41-.89.99-1.85,2.22-2.92.73-.64,1.51-1.11,2.21-1.45,1.18-.57,2.11-.54,2.11-.54,0,0,1.09-.05,2.38.49,1.11.47,2.37,1.2,3.22,2.31.67.88,1.03,2.06,1.21,3.15.28,1.61.07,3.27.07,3.27ZM384.31,126.64c-3.08,4.9-9.8,7.35-9.8,7.35,0,0-1.5.56-3.62.47-1.89-.08-4.43-.82-4.43-.82,0,0-13.88-4.39-25.08-8.52-5.46-2.01-10.22-4.11-12.6-5.19-1.04-.47-1.51-.76-1.51-.76,0,0-.69-.38-1.53-1.03-.91-.7-2.14-1.7-3.34-2.88-.61-.6-1.11-1.13-1.66-1.8-.6-.73-1.23-1.64-1.66-2.4-1.09-1.94-1.61-3.67-1.61-3.67,0,0-.55-1.7-.7-3.15-.15-1.47.23-2.68.23-2.68,0,0,.38-.83,1.14-1.57.56-.54,1.26-1.03,2.01-1.11.82-.09,1.52.24,2.08.65.82.62,1.19,1.45,1.19,1.45,0,0,.25.73.5,1.75.26,1.02.64,2.34,1.13,3.5.8,1.89,2.1,3.27,2.1,3.27,0,0,1,1.4,2.33,2.45,1.4,1.1,3.15,1.87,3.15,1.87l36.98,13.18s1.19.38,2.22.35c1.13-.03,2.1-.47,2.1-.47,0,0,1.27-.49,2.57-1.98.8-.92,1.74-2.28,2.45-3.73.52-1.06.8-2.1,1.17-3.27.33-1.04.52-2.31.74-3.22.45-1.9.43-3.08.43-3.08,0,0,.23-1.44.21-3.54-.08-12.13-.36-54-.43-64.52-.01-1.54-.25-2.29-.25-2.29,0,0,.07-1.02-.3-2.46-.89-3.48-2.98-10.06-6.82-14.34-5.77-6.43-15.05-8.28-15.05-8.28,0,0-3.4-.43-7.58-.58-6.33-.24-14.35-.23-14.35-.23,0,0-.71.05-1.17-.35-.53-.47-.82-1.4-.82-1.4,0,0-.49-1.23-.58-2.22-.08-.87.23-1.52.23-1.52,0,0,.17-.81.58-1.17.46-.4,1.17-.35,1.17-.35,0,0,3.76-.35,7.93-.35,4.87,0,10.27.35,10.27.35,0,0,2.89.05,5.6.47,2.66.4,5.13,1.17,5.13,1.17,0,0,11.8,4.37,17.73,14.12,5.6,9.2,5.37,23.8,5.37,23.8l.58,63.47s-.5,9.03-4.43,15.28Z"/>
    <path class="cls-1" d="M382.8,24.08c-5.94-9.74-17.73-14.12-17.73-14.12,0,0-2.48-.76-5.13-1.17-2.71-.41-5.6-.47-5.6-.47,0,0-5.39-.35-10.27-.35-4.17,0-7.93.35-7.93.35,0,0-.71-.05-1.17.35-.41.36-.58,1.17-.58,1.17,0,0-.32.64-.23,1.52.09.99.58,2.22.58,2.22,0,0,.29.93.82,1.4.45.4,1.17.35,1.17.35,0,0,8.02,0,14.35.23,4.18.16,7.58.58,7.58.58,0,0,9.28,1.86,15.05,8.28,3.84,4.28,5.93,10.86,6.82,14.34.37,1.44.3,2.46.3,2.46,0,0,.24.75.25,2.29.07,10.52.35,52.39.43,64.52.01,2.1-.21,3.54-.21,3.54,0,0,.02,1.17-.43,3.08-.22.91-.41,2.19-.74,3.22-.37,1.17-.65,2.21-1.17,3.27-.71,1.45-1.65,2.81-2.45,3.73-1.29,1.49-2.57,1.98-2.57,1.98,0,0-.97.44-2.1.47-1.03.03-2.22-.35-2.22-.35l-36.98-13.18s-1.75-.76-3.15-1.87c-1.34-1.05-2.33-2.45-2.33-2.45,0,0-1.3-1.37-2.1-3.27-.49-1.16-.87-2.48-1.13-3.5-.25-1.02-.5-1.75-.5-1.75,0,0-.37-.83-1.19-1.45-.55-.42-1.26-.74-2.08-.65-.75.08-1.45.57-2.01,1.11-.76.74-1.14,1.57-1.14,1.57,0,0-.38,1.22-.23,2.68.15,1.45.7,3.15.7,3.15,0,0,.52,1.73,1.61,3.67.43.76,1.05,1.66,1.66,2.4.55.67,1.04,1.2,1.66,1.8,1.2,1.18,2.43,2.18,3.34,2.88.85.65,1.53,1.03,1.53,1.03,0,0,.47.28,1.51.76,2.39,1.09,7.14,3.18,12.6,5.19,11.2,4.12,25.08,8.52,25.08,8.52,0,0,2.54.73,4.43.82,2.12.09,3.62-.47,3.62-.47,0,0,6.72-2.45,9.8-7.35,3.93-6.25,4.43-15.28,4.43-15.28l-.58-63.47s.24-14.6-5.37-23.8Z"/>
    <path class="cls-1" d="M259.36,65.15c-.85-1.12-2.11-1.85-3.22-2.31-1.29-.54-2.38-.49-2.38-.49,0,0-.93-.03-2.11.54-.7.34-1.48.81-2.21,1.45-1.22,1.07-1.81,2.03-2.22,2.92-.59,1.27-.58,2.45-.58,2.45,0,0-.03.81,0,1.28.03.46.35,1.52.35,1.52,0,0,.39.94,1.17,2.1.79,1.18,1.63,1.98,1.63,1.98,0,0,1.01,1.01,1.87,1.52.83.49,1.75.47,1.75.47,0,0,1.19-.09,2.54-.62.8-.31,1.65-.78,2.36-1.48.6-.59,1.08-1.38,1.45-2.16.71-1.5.89-2.74.89-2.74,0,0,.21-1.66-.07-3.27-.19-1.09-.55-2.27-1.21-3.15Z"/>
  </g>
  <g>
    <path class="cls-4" d="M340.21,274.34s-.3-74.94-.34-87.03c0-1.06,0-1.87,0-1.87,0,0-.02-.39-.14-1.48-.53-4.76-3-18.49-14.21-29.32-9.69-9.36-25.68-13.37-30.94-14.48-1.1-.23-1.73-.22-1.73-.22,0,0-.71-.13-2.01-.15-8.06-.12-38.58-.53-59.82-.44-14.16.06-21.93.82-21.93.82,0,0-18.16-.15-31.38,13.42-9.13,9.37-13.02,23.19-14.12,27.82-.24,1.01-.23,1.46-.23,1.46,0,0-.12.59-.12,1.45v62.67c0,.72.12,1.1.12,1.1,0,0,0,.37.21,1.02.82,2.42,3.22,8.67,7.37,13.22,4.68,5.12,12.25,7.58,12.25,7.58,0,0,3,.64,6.07.82,2.94.17,5.95-.12,5.95-.12l-.23-21.23s-.21,0-.56,0c-1.52-.02-5.75-.07-7.97-.09-.3,0-.61,0-.88,0-.49,0-.98,0-.98,0,0,0-.39-.31-1.05-.7-.4-.24-.54-.41-.93-.82-.56-.57-1-1.28-1.3-1.84-.29-.55-.34-.96-.34-.96,0,0-.11-.52-.11-1.4.03-4.49.11-18.2.11-18.2,0,0,.67-1.39,1.87-2.33,1.25-.98,2.68-1.17,2.68-1.17h11.78s1.52.31,2.57,1.63c.93,1.18,1.05,2.8,1.05,2.8l.23,51.34s.03.38.35.7c.37.37,1.05.7,1.05.7l22.52.23s1.31-.38,1.87-.93c.49-.49.82-1.05.82-1.05v-29.87s.09-.53.35-.93c.27-.42.7-.7.7-.7h1.4s.64.14.82.58c.17.43.35,1.17.35,1.17l.35,29.87s.12.93.58,1.52c.34.44,1.05.58,1.05.58l22.4-.12s1.24-.2,1.98-.7c.64-.43.93-1.05.93-1.05l-.12-30.33s.07-.41.35-.58c.35-.22.93-.23.93-.23h21.58s.35-.02.47.23c.17.37.12,1.05.12,1.05v27.6c0,.85.12,1.57.12,1.57,0,0,.16.22.58.75.24.3.52.61.82.88.28.25.59.44.86.59.43.23.77.22.77.22,0,0,.45.12,1.23.12h19.54s.3.02.7-.12c.24-.08.5-.27.77-.39.47-.21.95-.47,1.21-.77.27-.31.5-.65.67-.96.25-.44.27-.79.27-.79,0,0,.11-.5.11-1.36-.02-5.77-.11-27.93-.11-27.93,0,0,.15-.5.47-.82.26-.26.7-.35.7-.35h1.05l.82.35.35.93s.35,22.81.44,28.8c.01.9.14,1.3.14,1.3,0,0,.01.48.32.88.1.13.23.27.38.41.2.18.47.32.74.42.51.2,1.01.27,1.01.27l21.58-.12s1.46-.43,2.1-1.63c.7-1.3.58-3.27.58-3.27ZM209.6,175.89c-.06.28-.15.61-.26.97-.36,1.15-.98,2.58-2.01,3.57-.9.86-1.97,1.5-3.03,1.98-1.87.84-3.62,1.17-3.62,1.17,0,0-.72-.22-.82-.58-.08-.33.47-.82.47-.82,0,0,.83-.34,1.98-1.05.6-.37,1.38-.8,1.98-1.4,1.22-1.2,2.5-3.23,2.22-4.55-.56-2.66-1.78-3.75-2.92-4.9-1.47-1.48-3.38-1.52-3.38-1.52,0,0-.29.02-.47-.23-.16-.23-.23-.72-.12-.93.1-.19.33-.46.58-.58.48-.23,1.05-.23,1.05-.23,0,0,1.45.29,3.03,1.05.93.45,1.86,1.08,2.68,1.87.3.29.67.62.93.93.46.53.77,1.06,1.05,1.63.23.48.34.64.47,1.05.23.77.23,1.52.23,1.52,0,0,.07.49-.06,1.06ZM268.93,199.09c-.14,1.04-.47,2.1-.47,2.1,0,0-.45.94-1.28,1.98-.54.67-1.52,1.81-2.22,2.45-.5.46-1.01.8-1.48,1.06-1.01.55-1.79.58-1.79.58,0,0-.69.1-1.83-.04-1.03-.13-2.43-.36-4.01-.78-1.8-.48-3.79-1.45-5.83-2.22-4.5-1.7-9.07-3.64-11.43-4.9-1.07-.57-1.75-1.05-1.75-1.05,0,0-.45-.67-1.08-1.33-.4-.42-.82-.92-1.14-1.47-.86-1.45-1.05-3.15-1.05-3.15,0,0-.22-.71-.12-1.28.09-.51.49-.88.82-1.05.3-.16,1-.25,1.4,0,.45.29.58.93.58.93,0,0,.59,1.27,1.28,2.45.64,1.09,1.63,1.98,1.63,1.98,0,0,1.23,1.09,2.57,1.87,1.15.67,2.45,1.05,2.45,1.05,0,0,4.47,1.56,8.87,2.8,2.05.58,4.09,1.08,5.61,1.44,1.47.34,2.44.31,2.44.31,0,0,.84.07,1.63-.42.35-.22.68-.5.93-.86.59-.85,1.02-1.66,1.28-2.57.27-.95.35-1.98.35-1.98,0,0-.09-27.56-.11-35.32,0-1.27-.12-2.01-.12-2.01,0,0-.04-.82-.44-1.99-.57-1.65-1.62-4-3.41-5.71-2.02-1.92-4.86-3.12-6.72-3.76-1.14-.39-1.91-.56-1.91-.56,0,0-.69,0-1.7-.02-1.17-.01-2.82.04-4.25.02-1.86-.02-3.38-.12-3.38-.12,0,0-.33-.04-.58-.23-.27-.21-.47-.58-.47-.58v-2.1s.03-.2.23-.35c.2-.14.58-.23.58-.23,0,0,2.95-.11,6.07,0,2.22.08,4.52.24,5.92.36.81.06,1.55.23,1.55.23,0,0,.43.13,1.43.62,1.79.88,4.65,2.52,6.62,4.86,2.02,2.4,3.21,5.46,3.81,7.41.36,1.16.51,2.04.51,2.04,0,0,.03.59.08,1.8.13,3.3.37,10.36.39,17.34.03,9.23-.35,18.32-.35,18.32,0,0,.03,1.04-.12,2.1Z"/>
    <path class="cls-1" d="M209.42,173.31c-.12-.41-.24-.57-.47-1.05-.28-.58-.59-1.1-1.05-1.63-.27-.31-.64-.65-.93-.93-.82-.79-1.75-1.42-2.68-1.87-1.58-.76-3.03-1.05-3.03-1.05,0,0-.57,0-1.05.23-.26.12-.48.4-.58.58-.11.21-.05.7.12.93.18.25.47.23.47.23,0,0,1.91.03,3.38,1.52,1.13,1.15,2.36,2.24,2.92,4.9.28,1.32-1,3.35-2.22,4.55-.61.6-1.38,1.03-1.98,1.4-1.15.71-1.98,1.05-1.98,1.05,0,0-.55.48-.47.82.09.37.82.58.82.58,0,0,1.75-.32,3.62-1.17,1.06-.48,2.13-1.13,3.03-1.98,1.04-.98,1.66-2.41,2.01-3.57.11-.36.2-.69.26-.97.13-.57.06-1.06.06-1.06,0,0,0-.75-.23-1.52Z"/>
    <path class="cls-1" d="M269.39,178.67c-.02-6.98-.26-14.04-.39-17.34-.05-1.21-.08-1.8-.08-1.8,0,0-.15-.88-.51-2.04-.6-1.95-1.79-5.01-3.81-7.41-1.98-2.34-4.83-3.99-6.62-4.86-1-.49-1.43-.62-1.43-.62,0,0-.74-.16-1.55-.23-1.4-.11-3.7-.28-5.92-.36-3.12-.11-6.07,0-6.07,0,0,0-.38.09-.58.23-.21.15-.23.35-.23.35v2.1s.2.37.47.58c.25.2.58.23.58.23,0,0,1.52.09,3.38.12,1.43.02,3.08-.04,4.25-.02,1.01.01,1.7.02,1.7.02,0,0,.77.18,1.91.56,1.86.63,4.71,1.83,6.72,3.76,1.78,1.7,2.84,4.05,3.41,5.71.4,1.17.44,1.99.44,1.99,0,0,.12.74.12,2.01.02,7.76.11,35.32.11,35.32,0,0-.08,1.03-.35,1.98-.26.91-.69,1.72-1.28,2.57-.25.36-.59.64-.93.86-.79.49-1.63.42-1.63.42,0,0-.97.03-2.44-.31-1.51-.35-3.55-.86-5.61-1.44-4.4-1.24-8.87-2.8-8.87-2.8,0,0-1.3-.38-2.45-1.05-1.34-.78-2.57-1.87-2.57-1.87,0,0-.99-.89-1.63-1.98-.7-1.18-1.28-2.45-1.28-2.45,0,0-.13-.65-.58-.93-.4-.25-1.1-.16-1.4,0-.33.17-.72.54-.82,1.05-.1.57.12,1.28.12,1.28,0,0,.19,1.7,1.05,3.15.32.54.74,1.05,1.14,1.47.63.66,1.08,1.33,1.08,1.33,0,0,.68.48,1.75,1.05,2.36,1.26,6.93,3.2,11.43,4.9,2.04.77,4.03,1.74,5.83,2.22,1.57.42,2.97.65,4.01.78,1.13.14,1.83.04,1.83.04,0,0,.78-.02,1.79-.58.46-.26.97-.6,1.48-1.06.7-.64,1.68-1.78,2.22-2.45.83-1.05,1.28-1.98,1.28-1.98,0,0,.32-1.06.47-2.1.15-1.06.12-2.1.12-2.1,0,0,.38-9.08.35-18.32Z"/>
  </g>
  <path class="cls-2" d="M72.34,42.58c-1.23,0-1.99.05-1.99.05,0,0-.61.04-1.89.27-7,1.25-30.87,6.75-47.32,25.66C7.14,84.66,1.67,106.79.35,113.22c-.23,1.12-.23,1.98-.23,1.98,0,0-.11,1.11-.11,2.32v100.81c0,1.64-.01,2.92-.01,2.92,0,0,.09.69.37,2.45.85,5.35,3.5,17.08,11.09,24.48,4.14,4.04,7.84,7.05,11.05,9.29,9.29,6.49,13.66,6.37,13.66,6.37,0,0,3.37.27,6.53.35,5.44.13,12.78.28,12.78.28v-36.54h-19.37s-2.12-.36-3.52-1.76c-1.66-1.66-2.64-4.4-2.64-4.4v-33.46s1.24-3.64,2.64-4.84c1.66-1.42,4.4-1.76,4.4-1.76h20.69s3.34,1.26,4.84,3.52c1.57,2.36,1.32,5.72,1.32,5.72v82.33s.51,2.37,1.76,3.96c1.17,1.48,3.08,2.2,3.08,2.2l36.54-.44s2.27-.73,3.52-2.2c1.17-1.38,1.32-3.52,1.32-3.52l.44-50.63h4.84v51.07s.3,1.72,1.32,3.08c.96,1.28,2.64,2.2,2.64,2.2h37.86s1.45-.24,2.64-1.32c.55-.5,1.06-1.18,1.44-1.77.47-.72.56-1.33.56-1.33,0,0,.23-1,.24-2.44.02-2.23.04-5.5-.03-7.66-.02-.53-.11-1.21-.21-1.8-.11-.71-.35-1.27-.35-1.27,0,0-.14-.55-.43-1.23-.27-.62-.58-1.35-.77-1.86-.92-2.52-2.29-6.27-3.02-8.29-.31-.86-.45-1.34-.45-1.34,0,0-.06-.6-.06-1.58v-56.08c0-1.17.06-2.08.06-2.08,0,0-.03-.65.06-2.07.23-3.83.81-11.47,2.08-15.73,2.83-9.51,7.48-14.53,7.48-14.53,0,0-.99.25-1.93.36-.82.1-1.4,0-1.4,0,0,0-.62-.08-1.36-.35-5.61-2.08-29.66-11.02-29.66-11.02,0,0-3.45-.91-6.16-3.08-2.79-2.23-4.84-5.72-4.84-5.72,0,0-1.98-4.11-1.76-6.6.22-2.57,2.64-3.52,2.64-3.52,0,0,1.78-.42,2.64.44,1.09,1.09,1.32,3.52,1.32,3.52,0,0,.84,2.37,2.64,4.4,1.72,1.93,3.96,3.08,3.96,3.08,0,0,2.51,1.13,5.6,2.16,6.61,2.2,17.87,5.96,23.35,7.78,1.97.66,3.19,1.06,3.19,1.06,0,0,1.05.1,2.2,0,1.26-.11,2.64-.44,2.64-.44v-59.29c0-1.49.05-2.88,0-3.83-.06-1.19.12-2.22.12-2.22,0,0,.01-1.15.52-2.81.47-1.54.96-3.33,1.12-4.5.14-1.04.24-2.01.31-2.76.09-1,.03-1.83.03-1.83,0,0-.16-1.13-.84-2.9-.73-1.9-1.96-4.31-3.91-6.15-2.43-2.31-5.68-4.04-8.16-5.15-2.15-.96-3.29-1.02-3.29-1.02,0,0-.66-.21-4.84-.44-3.86-.21-9.74-.36-12.34-.41-.82-.02-1.39-.14-1.39-.14,0,0-.68-.11-1.5-.64-.87-.56-1.79-1.45-1.94-2.77-.3-2.63,3.52-3.52,3.52-3.52,0,0,11.36.3,15.36.4.86.02,1.37.11,1.37.11,0,0,.49,0,1.27.17,2.24.47,6.98,1.65,10.18,3.72,4.05,2.61,7.92,6.21,9.64,7.88.59.58.93.93.93.93,0,0,.96-3.65,2.64-7.48,2.47-5.61,5.94-12.08,5.72-11.89-.34.3-96.91.42-111.7.44ZM75.55,97.23c-.14.71-.3,1.29-.3,1.29,0,0-.14.43-.33.92-.24.6-.5,1.26-.5,1.26,0,0-1.2,4.05-3.52,6.6-2.07,2.28-3.96,2.64-3.96,2.64,0,0-.99.11-1.76,0-.77-.11-1.7-.46-1.7-.46,0,0-1.42-.47-2.7-1.75-1.14-1.14-1.76-3.08-1.76-3.08,0,0-.33-.97-.44-2.2-.06-.61-.05-1.3-.04-1.82.01-.49.04-.84.04-.84,0,0,.11-.36.35-.91.39-.86,1.11-2.14,2.29-3.04,1.82-1.39,4.84-1.76,4.84-1.76h10.13s-.37,1.83-.63,3.13Z"/>
</svg>